<svg width="113" height="14" viewBox="0 0 113 14" fill="none" xmlns="http://www.w3.org/2000/svg">
<path d="M14.371 6.92215C14.371 10.2261 11.7085 13.4643 7.16718 13.4643C3.17281 13.4643 0 10.6249 0 7.02135C0 3.30135 3.30066 0.694824 7.22165 0.694824C10.2677 0.694824 13.2038 2.57153 13.9697 5.04545H10.1032C9.46508 4.03219 8.42563 3.45116 7.13049 3.45116C4.96044 3.45116 3.44629 5.04545 3.44629 7.02135C3.44629 9.06406 4.86928 10.7079 7.14828 10.7079C8.75359 10.7079 9.95645 9.99431 10.3767 8.73204H6.34674V6.22471H14.371V6.92215Z" fill="#F2F2F2"/>
<path d="M22.2853 13.2151L19.1669 9.24611H19.1302V13.2151H15.8296V0.92749H20.2431C21.6472 0.92749 22.7233 1.0935 23.4348 1.37591C24.8933 1.97415 25.915 3.41862 25.915 5.16171C25.915 7.1042 24.6388 8.69849 22.5599 9.0305L26.2252 13.2151H22.2853ZM20.4065 7.1042C21.7739 7.1042 22.6132 6.52317 22.6132 5.34391C22.6132 4.28105 21.7383 3.68383 20.4432 3.68383H19.1302V7.1042H20.4065Z" fill="#F2F2F2"/>
<path d="M27.6973 13.2151V0.92749H31.1436V13.2151H27.6973Z" fill="#F2F2F2"/>
<path d="M41.0833 13.2151L35.9038 5.70933L35.995 13.2151H32.6943V0.92749H35.667L40.9187 8.69849L40.7731 0.92749H44.0738V13.2151H41.0833Z" fill="#F2F2F2"/>
<path d="M45.6245 13.2151V0.92749H50.2203C51.8979 0.92749 53.2297 1.1927 54.178 1.67453C56.0923 2.67057 57.2963 4.56347 57.2963 7.0708C57.2963 11.1228 54.6705 13.2151 50.4571 13.2151H45.6245ZM50.6216 10.4588C52.6094 10.4588 53.85 9.33012 53.85 7.08801C53.85 4.8965 52.6283 3.68383 50.6405 3.68383H49.0719V10.4588H50.6216Z" fill="#F2F2F2"/>
<path d="M69.0468 5.48361C68.4632 4.13834 67.1869 3.3417 65.7828 3.3417C63.6306 3.3417 62.172 5.01899 62.172 6.92808C62.172 8.92018 63.6673 10.5813 65.8006 10.5813C67.168 10.5813 68.3353 9.88383 69.0468 8.50516H72.6576C71.8194 11.4609 69.029 13.3376 65.8373 13.3376C63.9585 13.3376 62.1898 12.7394 60.8035 11.4943C59.3449 10.1986 58.7246 8.63776 58.7246 6.77827C58.7246 3.52391 61.8063 0.584351 65.6728 0.584351C67.5327 0.584351 69.0279 1.04897 70.3775 2.09563C71.6538 3.09168 72.4197 4.22134 72.6565 5.4826H69.0468V5.48361Z" fill="#3C71B8"/>
<path d="M80.6637 13.105L77.5454 9.136H77.5087V13.105H74.208V0.817383H78.6215C80.0256 0.817383 81.1017 0.98339 81.8132 1.26581C83.2718 1.86404 84.2934 3.30852 84.2934 5.0516C84.2934 6.9941 83.0172 8.58838 80.9383 8.9204L84.6036 13.105H80.6637ZM78.786 6.9941C80.1534 6.9941 80.9928 6.41307 80.9928 5.2338C80.9928 4.17095 80.1178 3.57372 78.8227 3.57372H77.5098V6.9941H78.786Z" fill="#3C71B8"/>
<path d="M86.1548 13.105V0.817383H93.6499V3.57372H89.4554V5.48281H93.5221V8.23915H89.4554V10.3477H93.6499V13.104H86.1548V13.105Z" fill="#3C71B8"/>
<path d="M97.8632 13.105V3.57372H95.2007V0.817383H103.954V3.57372H101.31V13.105H97.8632Z" fill="#3C71B8"/>
<path d="M105.505 13.105V0.817383H113V3.57372H108.806V5.48281H112.872V8.23915H108.806V10.3477H113V13.104H105.505V13.105Z" fill="#3C71B8"/>
</svg>
