<svg width="168" height="87" viewBox="0 0 168 87" fill="none" xmlns="http://www.w3.org/2000/svg">
<path d="M31.0794 41.0219C31.0794 48.1672 25.3213 55.1702 15.5001 55.1702C6.86167 55.1702 0 49.0297 0 41.2365C0 33.1914 7.13815 27.5544 15.6179 27.5544C22.2054 27.5544 28.555 31.6131 30.2115 36.9633H21.8496C20.4696 34.772 18.2216 33.5154 15.4207 33.5154C10.7277 33.5154 7.4531 36.9633 7.4531 41.2365C7.4531 45.6541 10.5305 49.2092 15.4592 49.2092C18.9309 49.2092 21.5323 47.6659 22.4411 44.9361H13.7257V39.5136H31.0794V41.0219Z" fill="#F2F2F2"/>
<path d="M48.1952 54.6317L41.4514 46.0482H41.372V54.6317H34.2339V28.058H43.7787C46.8152 28.058 49.1425 28.417 50.6812 29.0278C53.8356 30.3215 56.045 33.4454 56.045 37.2151C56.045 41.416 53.285 44.8639 48.7891 45.5819L56.7158 54.6317H48.1952ZM44.1321 41.416C47.0893 41.416 48.9045 40.1595 48.9045 37.6091C48.9045 35.3105 47.0124 34.019 44.2114 34.019H41.372V41.416H44.1321Z" fill="#F2F2F2"/>
<path d="M59.8989 54.6317V28.058H67.352V54.6317H59.8989Z" fill="#F2F2F2"/>
<path d="M88.8484 54.6317L77.6471 38.3994L77.8442 54.6317H70.7061V28.058H77.135L88.4925 44.8639L88.1776 28.058H95.3157V54.6317H88.8484Z" fill="#F2F2F2"/>
<path d="M98.6694 54.6317V28.058H108.609C112.236 28.058 115.117 28.6315 117.168 29.6736C121.308 31.8277 123.911 35.9213 123.911 41.3438C123.911 50.1068 118.233 54.6317 109.121 54.6317H98.6694ZM109.476 48.6708C113.775 48.6708 116.458 46.2299 116.458 41.381C116.458 36.6415 113.816 34.019 109.517 34.019H106.125V48.6708H109.476Z" fill="#F2F2F2"/>
<path d="M71.9732 69.1872C70.7109 66.2779 67.9509 64.555 64.9143 64.555C60.2598 64.555 57.1054 68.1824 57.1054 72.3111C57.1054 76.6193 60.3391 80.2116 64.9528 80.2116C67.91 80.2116 70.4344 78.7033 71.9732 75.7217H79.7821C77.9693 82.114 71.9347 86.1726 65.0322 86.1726C60.969 86.1726 57.1439 84.8788 54.1458 82.1862C50.9915 79.3841 49.6499 76.0085 49.6499 71.9871C49.6499 64.9491 56.3144 58.5919 64.6763 58.5919C68.6986 58.5919 71.9323 59.5967 74.851 61.8602C77.6111 64.0143 79.2676 66.4574 79.7797 69.185H71.9732V69.1872Z" fill="#3C71B8"/>
<path d="M97.0971 85.6691L90.3532 77.0855H90.2739V85.6691H83.1357V59.0953H92.6805C95.7171 59.0953 98.0444 59.4544 99.5831 60.0651C102.737 61.3589 104.947 64.4828 104.947 68.2524C104.947 72.4534 102.187 75.9012 97.6909 76.6193L105.618 85.6691H97.0971ZM93.0363 72.4534C95.9935 72.4534 97.8087 71.1968 97.8087 68.6465C97.8087 66.3479 95.9166 65.0563 93.1157 65.0563H90.2763V72.4534H93.0363Z" fill="#3C71B8"/>
<path d="M108.972 85.6691V59.0953H125.181V65.0563H116.11V69.185H124.904V75.146H116.11V79.7059H125.181V85.6669H108.972V85.6691Z" fill="#3C71B8"/>
<path d="M134.293 85.6691V65.0563H128.535V59.0953H147.466V65.0563H141.746V85.6691H134.293Z" fill="#3C71B8"/>
<path d="M150.819 85.6691V59.0953H167.029V65.0563H157.957V69.185H166.752V75.146H157.957V79.7059H167.029V85.6669H150.819V85.6691Z" fill="#3C71B8"/>
<path d="M145.182 34.9231C145.182 34.3254 145.182 33.73 145.182 33.1324C145.179 30.3106 145.174 30.2843 148.213 29.8465C149.108 29.7173 149.435 29.2861 149.127 28.6184C148.156 26.4949 148.403 24.2839 148.411 22.0839C148.411 21.7555 148.329 21.3155 148.091 21.1185C147.584 20.696 147.218 20.3435 147.648 19.6999C148.149 18.9534 148.173 17.7976 149.531 17.7844C152.399 17.756 155.267 17.7231 158.133 17.7713C159.28 17.791 160.391 19.9429 159.835 20.7726C159.525 21.2367 159.326 21.8058 159.244 22.3487C159.109 23.2594 159.184 24.1964 159.037 25.1049C158.535 28.2331 157.614 31.3351 158.169 34.5312C158.278 35.1551 158.689 36.0154 159.222 36.2365C160.186 36.6328 160.424 37.0881 160.338 37.9747C160.191 39.4852 160.4 39.6669 162.055 39.9646C164.935 40.4834 166.815 42.296 166.916 44.7894C167.01 47.0771 166.981 49.3691 167.024 51.6589C167.041 52.5389 166.603 53.1169 165.714 53.4036C165.134 53.5919 164.545 53.7933 163.942 53.8743C156.873 54.8112 149.81 55.0258 142.768 53.6685C140.816 53.292 140.501 52.9352 140.486 51.1532C140.467 48.8634 140.4 46.5714 140.51 44.2881C140.544 43.6029 141.008 42.8805 141.448 42.2807C141.917 41.6415 142.592 41.127 143.177 40.5579C143.126 40.4506 143.078 40.3433 143.027 40.2361C142.431 40.2361 141.835 40.2361 141.239 40.2361C140.623 40.2361 140.005 40.2711 139.392 40.2295C137.774 40.12 137.118 40.9016 137.745 42.3004C137.974 42.8127 138.354 43.2724 138.695 43.7365C139.705 45.1069 140.267 46.5758 140.191 48.257C140.034 51.6611 137.863 53.8502 134.507 53.9049C130.696 53.9662 128.165 51.8537 127.929 48.4124C127.732 45.5534 128.761 43.2198 131.401 41.5364C131.692 41.3503 131.788 40.9081 131.975 40.5863C131.634 40.4725 131.302 40.3105 130.949 40.2536C130.345 40.1551 129.706 40.1923 129.124 40.0434C127.787 39.7019 127.176 38.8876 127.203 37.6376C127.229 36.4139 127.915 35.6148 129.278 35.3521C130.006 35.212 130.761 35.1683 131.506 35.142C132.454 35.107 133.403 35.1332 134.56 35.1332C134.303 34.5838 134.185 34.251 134.002 33.9511C130.047 27.4166 126.08 20.8864 122.125 14.3519C121.512 13.3383 120.574 12.7604 119.368 12.4473C117.252 11.9001 115.153 11.3024 113.04 10.7442C112.2 10.5231 111.585 10.1334 111.583 9.26655C111.573 6.57393 111.535 3.88131 111.64 1.19307C111.657 0.783706 112.381 0.396231 112.78 0C113.21 0.367773 113.706 0.693952 114.045 1.12083C114.218 1.33974 114.129 1.74254 114.131 2.06215C114.138 3.78937 114.09 5.51878 114.172 7.24381C114.196 7.74293 114.448 8.51569 114.833 8.67111C117.278 9.65841 119.776 10.4224 122.409 9.03451C122.979 8.7346 123.755 8.53539 124.395 8.60106C126.849 8.85719 128.965 9.68249 130.249 11.8016C134.759 19.249 139.296 26.6854 143.84 34.1153C144.071 34.4918 144.468 34.783 144.785 35.1135C144.92 35.0544 145.049 34.9887 145.182 34.9231ZM143.001 46.1992C146.292 46.4357 149.589 46.6962 152.885 46.7443C156.974 46.8034 161.088 46.8954 165.106 45.9541C165.485 45.8643 165.937 45.8096 166.204 45.5885C166.442 45.3914 166.606 44.9558 166.538 44.6778C166.498 44.5092 165.918 44.2925 165.646 44.3494C157.561 46.046 149.478 45.803 141.251 44.3341C141.044 45.7045 141.936 46.1226 143.001 46.1992ZM148.403 35.5929C142.405 35.5689 136.404 35.5754 130.405 35.5995C129.872 35.6017 129.34 35.7746 128.806 35.8688C128.819 35.9717 128.831 36.0724 128.843 36.1752C135.976 36.1752 143.109 36.1752 150.243 36.1752C150.276 36.1008 150.312 36.0286 150.346 35.9541C149.697 35.8272 149.05 35.5951 148.403 35.5929ZM132.004 46.6633C131.314 47.4492 131.6 49.1261 132.572 49.6318C133.382 50.0521 134.418 49.5114 134.598 48.5438C134.663 48.1935 134.673 47.8148 134.605 47.4667C134.543 47.1493 134.343 46.8538 134.153 46.4357C135.108 46.6152 134.983 48.3183 136.329 47.4821C136.05 45.5053 134.928 44.3253 133.805 44.3297C133.098 45.2535 132.596 45.9913 132.004 46.6633ZM157.47 22.2349C157.813 22.2108 158.126 21.7949 158.453 21.5607C158.131 21.3658 157.813 21.0068 157.489 21.0024C154.984 20.9565 152.476 20.9543 149.968 21.0046C149.646 21.0112 149.334 21.3921 149.016 21.6001C149.329 21.8212 149.627 22.213 149.952 22.2327C151.221 22.3072 152.5 22.2634 153.777 22.2634C153.777 22.2656 153.777 22.2678 153.777 22.2699C155.008 22.2678 156.244 22.3181 157.47 22.2349ZM134.406 51.6064C135.389 51.3305 136.476 49.7806 136.425 48.859C136.416 48.6729 136.236 48.4059 136.06 48.3402C135.858 48.2658 135.471 48.2877 135.344 48.4146C134.654 49.1151 134.014 49.8551 133.375 50.5928C133.274 50.7088 133.259 50.8862 133.088 51.3546C133.572 51.4597 134.048 51.7071 134.406 51.6064ZM132.725 45.0609C132.858 44.8967 132.687 44.4567 132.531 44.2093C132.483 44.1349 131.98 44.2225 131.744 44.3363C130.408 44.9865 129.761 46.1467 130.03 47.3354C130.16 47.4295 130.29 47.5215 130.42 47.6156C131.196 46.7684 132.007 45.9453 132.725 45.0609ZM132.427 51.5713C132.314 49.785 131.23 48.2439 129.944 48.1519C129.941 49.8704 130.824 51.0525 132.427 51.5713Z" fill="#F2F2F2"/>
</svg>
